<?xml version="1.0" encoding="utf-8"?>
<!-- Generator: Adobe Illustrator 23.0.1, SVG Export Plug-In . SVG Version: 6.00 Build 0)  -->
<svg version="1.1"
	 id="svg2" xmlns:cc="http://creativecommons.org/ns#" xmlns:dc="http://purl.org/dc/elements/1.1/" xmlns:rdf="http://www.w3.org/1999/02/22-rdf-syntax-ns#" xmlns:svg="http://www.w3.org/2000/svg"
	 xmlns="http://www.w3.org/2000/svg" xmlns:xlink="http://www.w3.org/1999/xlink" x="0px" y="0px" viewBox="0 0 47.5 38.2"
	 style="enable-background:new 0 0 47.5 38.2;" xml:space="preserve">
<style type="text/css">
	.st0{clip-path:url(#SVGID_2_);}
	.st1{fill:#3B88C3;}
	.st2{fill:#55ACEE;}
	.st3{fill:#292F33;}
</style>
<g id="g10" transform="matrix(1.25,0,0,-1.25,0,47.5)">
	<g id="g12">
		<g>
			<defs>
				<rect id="SVGID_1_" x="-4.8" y="2.7" width="47.5" height="47.5"/>
			</defs>
			<clipPath id="SVGID_2_">
				<use xlink:href="#SVGID_1_"  style="overflow:visible;"/>
			</clipPath>
			<g id="g14" class="st0">
				<g id="g20" transform="translate(37,29.999)">
					<path id="path22" class="st1" d="M0,7.5c-2-3-2,1-5-2c-3,2-3-3-6,0c0.9-2.7,3.4-4.6,6.1-4.9C-5.2-1.2-4.7-3.4-7-5.5
						c-2-1.9-3-0.3-8,3c-3,2-5,4-10,3c-5.9-1.2-11-6-11-8s3-14,21-14c2,0,5.2,0.7,8,3c6,5,5.9,15.3,4.6,19.5C-0.6,2.1,0,5.1,0,7.5"
						/>
				</g>
				<g id="g24" transform="translate(31.2139,5.1875)">
					<path id="path26" class="st2" d="M0,7.5C0.1,7.6,0.3,7.8,0.4,8c1.9,2.3,2.9,5.3,3.4,8.3c-2-5-3-10-14-10c-11,0-15,13-20,11
						c0-2,3-14,21-14c2,0,5.2,0.7,8,3c0.3,0.3,0.6,0.6,0.9,0.8C-0.2,7.2-0.1,7.4,0,7.5"/>
				</g>
				<g id="g28" transform="translate(9,15.5)">
					<path id="path30" class="st3" d="M0,7.5C0,6.6-0.7,6-1.5,6S-3,6.6-3,7.5S-2.3,9-1.5,9S0,8.3,0,7.5"/>
				</g>
			</g>
		</g>
	</g>
</g>
</svg>
